<svg width="57" height="56" viewBox="0 0 57 56" fill="none" xmlns="http://www.w3.org/2000/svg">
<path d="M14.1562 32.6665H9.48958C8.20092 32.6665 7.15625 33.7112 7.15625 34.9999V39.6665C7.15625 40.9552 8.20092 41.9999 9.48958 41.9999H14.1562C15.4449 41.9999 16.4895 40.9552 16.4895 39.6665V34.9999C16.4895 33.7112 15.4449 32.6665 14.1562 32.6665Z" stroke="#D8D8EB" stroke-width="3" stroke-linecap="round" stroke-linejoin="round"/>
<path d="M46.8223 32.6665H42.1555C40.8669 32.6665 39.8223 33.7112 39.8223 34.9999V39.6665C39.8223 40.9552 40.8669 41.9999 42.1555 41.9999H46.8223C48.111 41.9999 49.1555 40.9552 49.1555 39.6665V34.9999C49.1555 33.7112 48.111 32.6665 46.8223 32.6665Z" stroke="#D8D8EB" stroke-width="3" stroke-linecap="round" stroke-linejoin="round"/>
<path d="M30.4902 14H25.8235C24.5349 14 23.4902 15.0447 23.4902 16.3333V21C23.4902 22.2887 24.5349 23.3333 25.8235 23.3333H30.4902C31.7788 23.3333 32.8236 22.2887 32.8236 21V16.3333C32.8236 15.0447 31.7788 14 30.4902 14Z" stroke="#D8D8EB" stroke-width="3" stroke-linecap="round" stroke-linejoin="round"/>
<path d="M23.489 19.8335C20.3851 20.3502 17.5457 21.8976 15.4291 24.2259C13.3124 26.5543 12.0418 29.5278 11.8223 32.6668" stroke="#D8D8EB" stroke-width="3" stroke-linecap="round" stroke-linejoin="round"/>
<path d="M32.8223 19.8335C35.9262 20.3502 38.7655 21.8976 40.8821 24.2259C42.9988 26.5543 44.2694 29.5278 44.4889 32.6668" stroke="#D8D8EB" stroke-width="3" stroke-linecap="round" stroke-linejoin="round"/>
<path d="M23.4903 18.6665H9.49023" stroke="#D8D8EB" stroke-width="3" stroke-linecap="round" stroke-linejoin="round"/>
<path d="M46.8223 18.6665H32.8223" stroke="#D8D8EB" stroke-width="3" stroke-linecap="round" stroke-linejoin="round"/>
<path d="M7.1556 21.0001C8.44426 21.0001 9.48893 19.9554 9.48893 18.6668C9.48893 17.3781 8.44426 16.3335 7.1556 16.3335C5.86693 16.3335 4.82227 17.3781 4.82227 18.6668C4.82227 19.9554 5.86693 21.0001 7.1556 21.0001Z" stroke="#D8D8EB" stroke-width="3" stroke-linecap="round" stroke-linejoin="round"/>
<path d="M49.1555 21.0001C50.4442 21.0001 51.4889 19.9554 51.4889 18.6668C51.4889 17.3781 50.4442 16.3335 49.1555 16.3335C47.8669 16.3335 46.8223 17.3781 46.8223 18.6668C46.8223 19.9554 47.8669 21.0001 49.1555 21.0001Z" stroke="#D8D8EB" stroke-width="3" stroke-linecap="round" stroke-linejoin="round"/>
</svg>
