<svg width="22" height="21" viewBox="0 0 22 21" fill="none" xmlns="http://www.w3.org/2000/svg">
<path fill-rule="evenodd" clip-rule="evenodd" d="M10.9938 0.00195312C11.3745 0.00195312 11.7221 0.218053 11.8906 0.559393L14.7438 6.34073L21.1233 7.26529C21.5002 7.31992 21.8133 7.58388 21.9309 7.94609C22.0486 8.30831 21.9502 8.70589 21.6774 8.97153L17.0544 13.4715L18.1444 19.8259C18.2088 20.2012 18.0544 20.5805 17.7463 20.8042C17.4381 21.0279 17.0296 21.0572 16.6927 20.8796L11.0003 17.88L5.29419 20.8801C4.95729 21.0572 4.54899 21.0277 4.24109 20.804C3.93309 20.5802 3.77889 20.2011 3.84319 19.8259L4.93329 13.4715L0.310294 8.97153C0.0373938 8.70589 -0.0609073 8.30831 0.0566927 7.94609C0.174393 7.58388 0.487494 7.31992 0.864394 7.26529L7.24389 6.34073L10.0971 0.559393C10.2656 0.218053 10.6132 0.00195312 10.9938 0.00195312Z" fill="#F5DB76"/>
</svg>
